%TF.GenerationSoftware,KiCad,Pcbnew,8.0.5*%
%TF.CreationDate,2025-02-05T22:29:23-08:00*%
%TF.ProjectId,Observatory,4f627365-7276-4617-946f-72792e6b6963,rev?*%
%TF.SameCoordinates,Original*%
%TF.FileFunction,Profile,NP*%
%FSLAX46Y46*%
G04 Gerber Fmt 4.6, Leading zero omitted, Abs format (unit mm)*
G04 Created by KiCad (PCBNEW 8.0.5) date 2025-02-05 22:29:23*
%MOMM*%
%LPD*%
G01*
G04 APERTURE LIST*
%TA.AperFunction,Profile*%
%ADD10C,0.050000*%
%TD*%
%ADD11C,0.350000*%
G04 APERTURE END LIST*
D10*
X41400000Y-39900000D02*
X245800000Y-39900000D01*
X245800000Y-116900000D01*
X41400000Y-116900000D01*
X41400000Y-39900000D01*
D11*
X138502500Y-66825200D03*
X111578500Y-96035200D03*
X111197500Y-66190200D03*
X123042500Y-77351200D03*
X135962500Y-66825200D03*
X114118500Y-96035200D03*
X108657500Y-66190200D03*
X123042500Y-79891200D03*
X138502500Y-69365200D03*
X116658500Y-96035200D03*
X111197500Y-68730200D03*
X135962500Y-69365200D03*
X119198500Y-96035200D03*
X108657500Y-68730200D03*
X138502500Y-71905200D03*
X121738500Y-96035200D03*
X111197500Y-71270200D03*
X135962500Y-71905200D03*
X124278500Y-96035200D03*
X108657500Y-71270200D03*
X138502500Y-74445200D03*
X126818500Y-96035200D03*
X111197500Y-73810200D03*
X135962500Y-74445200D03*
X129358500Y-96035200D03*
X108657500Y-73810200D03*
X138502500Y-76985200D03*
X131898500Y-96035200D03*
X111197500Y-76350200D03*
X135962500Y-76985200D03*
X134438500Y-96035200D03*
X108657500Y-76350200D03*
X138502500Y-79525200D03*
X111197500Y-78890200D03*
X135962500Y-79525200D03*
X108657500Y-78890200D03*
X138502500Y-82065200D03*
X111197500Y-81430200D03*
X135962500Y-82065200D03*
X108657500Y-81430200D03*
X138502500Y-84605200D03*
X111197500Y-83970200D03*
X135962500Y-84605200D03*
X108657500Y-83970200D03*
X138502500Y-87145200D03*
X111197500Y-86510200D03*
X135962500Y-87145200D03*
X108657500Y-86510200D03*
X138502500Y-89685200D03*
X111197500Y-89050200D03*
X135962500Y-89685200D03*
X108657500Y-89050200D03*
X111197500Y-91590200D03*
X108657500Y-91590200D03*
X153760000Y-48400000D03*
X156300000Y-48400000D03*
X158840000Y-48400000D03*
X129662500Y-48400000D03*
X132202500Y-48400000D03*
X134742500Y-48400000D03*
X154325000Y-106200000D03*
X154325000Y-103660000D03*
X98440000Y-48500000D03*
X95900000Y-48500000D03*
X93360000Y-48500000D03*
X90820000Y-48500000D03*
X88280000Y-48500000D03*
X117965000Y-48400000D03*
X120505000Y-48400000D03*
X123045000Y-48400000D03*
X156150000Y-59713200D03*
X158690000Y-59713200D03*
X156150000Y-62253200D03*
X158690000Y-62253200D03*
X156150000Y-64793200D03*
X158690000Y-64793200D03*
X156150000Y-67333200D03*
X158690000Y-67333200D03*
X156150000Y-69873200D03*
X158690000Y-69873200D03*
X156150000Y-72413200D03*
X158690000Y-72413200D03*
X156150000Y-74953200D03*
X158690000Y-74953200D03*
X156150000Y-77493200D03*
X158690000Y-77493200D03*
X156150000Y-80033200D03*
X158690000Y-80033200D03*
X156150000Y-82573200D03*
X158690000Y-82573200D03*
X156150000Y-85113200D03*
X158690000Y-85113200D03*
X156150000Y-87653200D03*
X158690000Y-87653200D03*
X156150000Y-90193200D03*
X158690000Y-90193200D03*
X156150000Y-92733200D03*
X158690000Y-92733200D03*
X156150000Y-95273200D03*
X158690000Y-95273200D03*
X156150000Y-97813200D03*
X158690000Y-97813200D03*
X46180300Y-73508100D03*
X46180300Y-76048100D03*
X46180300Y-78588100D03*
X46180300Y-81128100D03*
X46185300Y-83658100D03*
X53800300Y-73508100D03*
X53800300Y-76048100D03*
X53800300Y-78588100D03*
X53800300Y-81128100D03*
X53805300Y-83658100D03*
X222102944Y-43800000D03*
X222805888Y-42102944D03*
X222805888Y-45497056D03*
X224502944Y-41400000D03*
X224502944Y-43800000D03*
X224502944Y-46200000D03*
X226200000Y-42102944D03*
X226200000Y-45497056D03*
X226902944Y-43800000D03*
X185942500Y-59713200D03*
X188482500Y-59713200D03*
X185942500Y-62253200D03*
X188482500Y-62253200D03*
X185942500Y-64793200D03*
X188482500Y-64793200D03*
X185942500Y-67333200D03*
X188482500Y-67333200D03*
X185942500Y-69873200D03*
X188482500Y-69873200D03*
X185942500Y-72413200D03*
X188482500Y-72413200D03*
X185942500Y-74953200D03*
X188482500Y-74953200D03*
X185942500Y-77493200D03*
X188482500Y-77493200D03*
X185942500Y-80033200D03*
X188482500Y-80033200D03*
X185942500Y-82573200D03*
X188482500Y-82573200D03*
X185942500Y-85113200D03*
X188482500Y-85113200D03*
X185942500Y-87653200D03*
X188482500Y-87653200D03*
X185942500Y-90193200D03*
X188482500Y-90193200D03*
X185942500Y-92733200D03*
X188482500Y-92733200D03*
X185942500Y-95273200D03*
X188482500Y-95273200D03*
X185942500Y-97813200D03*
X188482500Y-97813200D03*
X141360000Y-48400000D03*
X143900000Y-48400000D03*
X146440000Y-48400000D03*
X124640000Y-103900000D03*
X122100000Y-103900000D03*
X119560000Y-103900000D03*
X117020000Y-103900000D03*
X114480000Y-103900000D03*
X111940000Y-103900000D03*
X238675000Y-60988200D03*
X241215000Y-60988200D03*
X238675000Y-63528200D03*
X241215000Y-63528200D03*
X238675000Y-66068200D03*
X241215000Y-66068200D03*
X238675000Y-68608200D03*
X241215000Y-68608200D03*
X238675000Y-71148200D03*
X241215000Y-71148200D03*
X238675000Y-73688200D03*
X241215000Y-73688200D03*
X238675000Y-76228200D03*
X241215000Y-76228200D03*
X238675000Y-78768200D03*
X241215000Y-78768200D03*
X238675000Y-81308200D03*
X241215000Y-81308200D03*
X238675000Y-83848200D03*
X241215000Y-83848200D03*
X238675000Y-86388200D03*
X241215000Y-86388200D03*
X238675000Y-88928200D03*
X241215000Y-88928200D03*
X238675000Y-91468200D03*
X241215000Y-91468200D03*
X238675000Y-94008200D03*
X241215000Y-94008200D03*
X238675000Y-96548200D03*
X241215000Y-96548200D03*
X222102944Y-112900000D03*
X222805888Y-111202944D03*
X222805888Y-114597056D03*
X224502944Y-110500000D03*
X224502944Y-112900000D03*
X224502944Y-115300000D03*
X226200000Y-111202944D03*
X226200000Y-114597056D03*
X226902944Y-112900000D03*
X91725000Y-55000000D03*
X94265000Y-55000000D03*
X133700000Y-103900000D03*
X131160000Y-103900000D03*
X143860000Y-106200000D03*
X143860000Y-103660000D03*
X46180300Y-51689100D03*
X46180300Y-54229100D03*
X46180300Y-56769100D03*
X46180300Y-59309100D03*
X46185300Y-61839100D03*
X53800300Y-51689100D03*
X53800300Y-54229100D03*
X53800300Y-56769100D03*
X53800300Y-59309100D03*
X53805300Y-61839100D03*
X106267500Y-48400000D03*
X108807500Y-48400000D03*
X111347500Y-48400000D03*
X212227500Y-59713200D03*
X214767500Y-59713200D03*
X212227500Y-62253200D03*
X214767500Y-62253200D03*
X212227500Y-64793200D03*
X214767500Y-64793200D03*
X212227500Y-67333200D03*
X214767500Y-67333200D03*
X212227500Y-69873200D03*
X214767500Y-69873200D03*
X212227500Y-72413200D03*
X214767500Y-72413200D03*
X212227500Y-74953200D03*
X214767500Y-74953200D03*
X212227500Y-77493200D03*
X214767500Y-77493200D03*
X212227500Y-80033200D03*
X214767500Y-80033200D03*
X212227500Y-82573200D03*
X214767500Y-82573200D03*
X212227500Y-85113200D03*
X214767500Y-85113200D03*
X212227500Y-87653200D03*
X214767500Y-87653200D03*
X212227500Y-90193200D03*
X214767500Y-90193200D03*
X212227500Y-92733200D03*
X214767500Y-92733200D03*
X212227500Y-95273200D03*
X214767500Y-95273200D03*
X212227500Y-97813200D03*
X214767500Y-97813200D03*
X43000000Y-112900000D03*
X43702944Y-111202944D03*
X43702944Y-114597056D03*
X45400000Y-110500000D03*
X45400000Y-112900000D03*
X45400000Y-115300000D03*
X47097056Y-111202944D03*
X47097056Y-114597056D03*
X47800000Y-112900000D03*
X46180300Y-95327000D03*
X46180300Y-97867000D03*
X46180300Y-100407000D03*
X46180300Y-102947000D03*
X46185300Y-105477000D03*
X53800300Y-95327000D03*
X53800300Y-97867000D03*
X53800300Y-100407000D03*
X53800300Y-102947000D03*
X53805300Y-105477000D03*
X91702500Y-66063200D03*
X94242500Y-66063200D03*
X91702500Y-68603200D03*
X94242500Y-68603200D03*
X91702500Y-71143200D03*
X94242500Y-71143200D03*
X91702500Y-73683200D03*
X94242500Y-73683200D03*
X91702500Y-76223200D03*
X94242500Y-76223200D03*
X91702500Y-78763200D03*
X94242500Y-78763200D03*
X91702500Y-81303200D03*
X94242500Y-81303200D03*
X91702500Y-83843200D03*
X94242500Y-83843200D03*
X91702500Y-86383200D03*
X94242500Y-86383200D03*
X91702500Y-88923200D03*
X94242500Y-88923200D03*
X91702500Y-91463200D03*
X94242500Y-91463200D03*
X43000000Y-43900000D03*
X43702944Y-42202944D03*
X43702944Y-45597056D03*
X45400000Y-41500000D03*
X45400000Y-43900000D03*
X45400000Y-46300000D03*
X47097056Y-42202944D03*
X47097056Y-45597056D03*
X47800000Y-43900000D03*
M02*
