M48
; DRILL file {KiCad 8.0.5} date 2025-02-05T22:29:23-0800
; FORMAT={-:-/ absolute / metric / decimal}
; #@! TF.CreationDate,2025-02-05T22:29:23-08:00
; #@! TF.GenerationSoftware,Kicad,Pcbnew,8.0.5
; #@! TF.FileFunction,Plated,1,2,PTH
FMAT,2
METRIC
; #@! TA.AperFunction,Plated,PTH,ViaDrill
T1C0.300
; #@! TA.AperFunction,Plated,PTH,ComponentDrill
T2C0.500
; #@! TA.AperFunction,Plated,PTH,ComponentDrill
T3C0.813
; #@! TA.AperFunction,Plated,PTH,ComponentDrill
T4C0.900
; #@! TA.AperFunction,Plated,PTH,ComponentDrill
T5C1.000
; #@! TA.AperFunction,Plated,PTH,ComponentDrill
T6C3.200
%
G90
G05
T1
X61.355Y-97.746
X63.5Y-44.7
X63.5Y-49.4
X63.5Y-54.2
X63.5Y-58.9
X63.5Y-63.6
X63.5Y-68.3
X63.5Y-73.0
X63.5Y-77.8
X63.5Y-82.5
X63.5Y-87.1
X63.5Y-91.9
X63.5Y-96.6
X63.5Y-106.1
X63.5Y-110.9
X66.65Y-87.107
X67.55Y-87.107
X68.45Y-87.107
X69.35Y-87.107
X70.2Y-87.157
X70.4Y-54.4
X71.1Y-87.157
X71.3Y-54.4
X71.85Y-100.3
X71.85Y-101.3
X71.85Y-103.907
X71.9Y-96.6
X71.9Y-99.5
X71.9Y-102.1
X71.9Y-103.0
X72.0Y-87.157
X72.1Y-54.4
X72.611Y-50.095
X72.7Y-94.8
X72.8Y-96.6
X72.9Y-87.157
X73.0Y-54.4
X73.5Y-94.6
X73.8Y-87.157
X73.9Y-54.4
X74.1Y-94.0
X74.7Y-54.4
X74.7Y-87.157
X74.7Y-93.4
X75.3Y-92.8
X75.352Y-64.3
X75.5Y-54.4
X75.6Y-87.157
X75.9Y-92.2
X76.2Y-64.3
X76.3Y-54.4
X76.5Y-87.157
X76.6Y-91.7
X77.1Y-54.4
X77.1Y-64.3
X77.4Y-91.4
X77.9Y-54.4
X78.0Y-64.3
X78.303Y-91.012
X78.7Y-54.4
X78.9Y-64.3
X79.096Y-90.784
X79.1Y-101.1
X79.5Y-54.4
X79.8Y-64.3
X79.924Y-90.522
X80.7Y-64.3
X80.71Y-90.301
X81.576Y-64.276
X81.8Y-77.9
X81.8Y-96.5
X82.4Y-64.3
X82.5Y-92.2
X82.7Y-55.5
X82.9Y-51.0
X83.2Y-97.9
X83.3Y-64.3
X83.6Y-73.7
X83.75Y-99.3
X83.9Y-51.0
X84.153Y-72.447
X84.2Y-64.3
X84.3Y-106.3
X84.719Y-71.881
X84.9Y-51.0
X85.1Y-64.3
X85.284Y-71.316
X85.7Y-51.0
X86.65Y-71.3
X87.2Y-90.4
X87.45Y-71.3
X88.25Y-71.3
X89.907Y-55.557
X90.1Y-62.1
X90.7Y-97.9
X90.7Y-99.3
X90.9Y-62.7
X91.7Y-63.4
X92.5Y-64.0
X96.3Y-103.3
X135.003Y-99.806
X148.7Y-53.8
X156.108Y-100.052
X158.8Y-55.8
X163.0Y-59.713
X163.0Y-64.793
X163.0Y-67.333
X163.0Y-72.413
X163.0Y-77.493
X163.0Y-90.193
X163.0Y-95.273
X163.139Y-58.266
X164.866Y-99.723
X166.0Y-63.8
X166.1Y-58.7
X166.1Y-61.2
X171.0Y-58.7
X171.0Y-61.2
X171.0Y-63.8
X174.8Y-58.7
X174.8Y-61.0
X174.8Y-63.2
X174.8Y-66.1
X176.9Y-61.3
X176.9Y-63.8
X176.915Y-95.957
X177.0Y-58.7
X178.86Y-61.207
X179.668Y-58.714
X179.755Y-61.109
X180.2Y-66.1
X182.661Y-90.514
X182.7Y-68.4
X183.0Y-59.7
X183.9Y-59.7
X184.843Y-61.17
X191.9Y-59.7
X192.1Y-86.2
X192.8Y-59.7
X194.2Y-63.8
X197.4Y-69.4
X198.3Y-59.7
X198.8Y-73.5
X200.596Y-59.433
X206.551Y-99.723
X206.634Y-100.604
X208.904Y-57.88
X215.719Y-88.736
X216.697Y-80.428
X218.3Y-72.5
X218.461Y-94.003
X221.0Y-91.5
X221.439Y-82.184
X231.1Y-63.6
X235.606Y-69.816
X236.312Y-79.261
X239.758Y-64.611
T2
X43.0Y-43.9
X43.0Y-112.9
X43.703Y-42.203
X43.703Y-45.597
X43.703Y-111.203
X43.703Y-114.597
X45.4Y-41.5
X45.4Y-46.3
X45.4Y-110.5
X45.4Y-115.3
X47.097Y-42.203
X47.097Y-45.597
X47.097Y-111.203
X47.097Y-114.597
X47.8Y-43.9
X47.8Y-112.9
X222.103Y-43.8
X222.103Y-112.9
X222.806Y-42.103
X222.806Y-45.497
X222.806Y-111.203
X222.806Y-114.597
X224.503Y-41.4
X224.503Y-46.2
X224.503Y-110.5
X224.503Y-115.3
X226.2Y-42.103
X226.2Y-45.497
X226.2Y-111.203
X226.2Y-114.597
X226.903Y-43.8
X226.903Y-112.9
T3
X46.18Y-51.689
X46.18Y-54.229
X46.18Y-56.769
X46.18Y-59.309
X46.18Y-73.508
X46.18Y-76.048
X46.18Y-78.588
X46.18Y-81.128
X46.18Y-95.327
X46.18Y-97.867
X46.18Y-100.407
X46.18Y-102.947
X46.185Y-61.839
X46.185Y-83.658
X46.185Y-105.477
X53.8Y-51.689
X53.8Y-54.229
X53.8Y-56.769
X53.8Y-59.309
X53.8Y-73.508
X53.8Y-76.048
X53.8Y-78.588
X53.8Y-81.128
X53.8Y-95.327
X53.8Y-97.867
X53.8Y-100.407
X53.8Y-102.947
X53.805Y-61.839
X53.805Y-83.658
X53.805Y-105.477
T4
X123.042Y-77.351
X123.042Y-79.891
T5
X88.28Y-48.5
X90.82Y-48.5
X91.703Y-66.063
X91.703Y-68.603
X91.703Y-71.143
X91.703Y-73.683
X91.703Y-76.223
X91.703Y-78.763
X91.703Y-81.303
X91.703Y-83.843
X91.703Y-86.383
X91.703Y-88.923
X91.703Y-91.463
X91.725Y-55.0
X93.36Y-48.5
X94.242Y-66.063
X94.242Y-68.603
X94.242Y-71.143
X94.242Y-73.683
X94.242Y-76.223
X94.242Y-78.763
X94.242Y-81.303
X94.242Y-83.843
X94.242Y-86.383
X94.242Y-88.923
X94.242Y-91.463
X94.265Y-55.0
X95.9Y-48.5
X98.44Y-48.5
X106.267Y-48.4
X108.657Y-66.19
X108.657Y-68.73
X108.657Y-71.27
X108.657Y-73.81
X108.657Y-76.35
X108.657Y-78.89
X108.657Y-81.43
X108.657Y-83.97
X108.657Y-86.51
X108.657Y-89.05
X108.657Y-91.59
X108.807Y-48.4
X111.197Y-66.19
X111.197Y-68.73
X111.197Y-71.27
X111.197Y-73.81
X111.197Y-76.35
X111.197Y-78.89
X111.197Y-81.43
X111.197Y-83.97
X111.197Y-86.51
X111.197Y-89.05
X111.197Y-91.59
X111.347Y-48.4
X111.578Y-96.035
X111.94Y-103.9
X114.118Y-96.035
X114.48Y-103.9
X116.658Y-96.035
X117.02Y-103.9
X117.965Y-48.4
X119.198Y-96.035
X119.56Y-103.9
X120.505Y-48.4
X121.738Y-96.035
X122.1Y-103.9
X123.045Y-48.4
X124.278Y-96.035
X124.64Y-103.9
X126.819Y-96.035
X129.358Y-96.035
X129.662Y-48.4
X131.16Y-103.9
X131.898Y-96.035
X132.202Y-48.4
X133.7Y-103.9
X134.439Y-96.035
X134.743Y-48.4
X135.963Y-66.825
X135.963Y-69.365
X135.963Y-71.905
X135.963Y-74.445
X135.963Y-76.985
X135.963Y-79.525
X135.963Y-82.065
X135.963Y-84.605
X135.963Y-87.145
X135.963Y-89.685
X138.502Y-66.825
X138.502Y-69.365
X138.502Y-71.905
X138.502Y-74.445
X138.502Y-76.985
X138.502Y-79.525
X138.502Y-82.065
X138.502Y-84.605
X138.502Y-87.145
X138.502Y-89.685
X141.36Y-48.4
X143.86Y-103.66
X143.86Y-106.2
X143.9Y-48.4
X146.44Y-48.4
X153.76Y-48.4
X154.325Y-103.66
X154.325Y-106.2
X156.15Y-59.713
X156.15Y-62.253
X156.15Y-64.793
X156.15Y-67.333
X156.15Y-69.873
X156.15Y-72.413
X156.15Y-74.953
X156.15Y-77.493
X156.15Y-80.033
X156.15Y-82.573
X156.15Y-85.113
X156.15Y-87.653
X156.15Y-90.193
X156.15Y-92.733
X156.15Y-95.273
X156.15Y-97.813
X156.3Y-48.4
X158.69Y-59.713
X158.69Y-62.253
X158.69Y-64.793
X158.69Y-67.333
X158.69Y-69.873
X158.69Y-72.413
X158.69Y-74.953
X158.69Y-77.493
X158.69Y-80.033
X158.69Y-82.573
X158.69Y-85.113
X158.69Y-87.653
X158.69Y-90.193
X158.69Y-92.733
X158.69Y-95.273
X158.69Y-97.813
X158.84Y-48.4
X185.942Y-59.713
X185.942Y-62.253
X185.942Y-64.793
X185.942Y-67.333
X185.942Y-69.873
X185.942Y-72.413
X185.942Y-74.953
X185.942Y-77.493
X185.942Y-80.033
X185.942Y-82.573
X185.942Y-85.113
X185.942Y-87.653
X185.942Y-90.193
X185.942Y-92.733
X185.942Y-95.273
X185.942Y-97.813
X188.482Y-59.713
X188.482Y-62.253
X188.482Y-64.793
X188.482Y-67.333
X188.482Y-69.873
X188.482Y-72.413
X188.482Y-74.953
X188.482Y-77.493
X188.482Y-80.033
X188.482Y-82.573
X188.482Y-85.113
X188.482Y-87.653
X188.482Y-90.193
X188.482Y-92.733
X188.482Y-95.273
X188.482Y-97.813
X212.227Y-59.713
X212.227Y-62.253
X212.227Y-64.793
X212.227Y-67.333
X212.227Y-69.873
X212.227Y-72.413
X212.227Y-74.953
X212.227Y-77.493
X212.227Y-80.033
X212.227Y-82.573
X212.227Y-85.113
X212.227Y-87.653
X212.227Y-90.193
X212.227Y-92.733
X212.227Y-95.273
X212.227Y-97.813
X214.767Y-59.713
X214.767Y-62.253
X214.767Y-64.793
X214.767Y-67.333
X214.767Y-69.873
X214.767Y-72.413
X214.767Y-74.953
X214.767Y-77.493
X214.767Y-80.033
X214.767Y-82.573
X214.767Y-85.113
X214.767Y-87.653
X214.767Y-90.193
X214.767Y-92.733
X214.767Y-95.273
X214.767Y-97.813
X238.675Y-60.988
X238.675Y-63.528
X238.675Y-66.068
X238.675Y-68.608
X238.675Y-71.148
X238.675Y-73.688
X238.675Y-76.228
X238.675Y-78.768
X238.675Y-81.308
X238.675Y-83.848
X238.675Y-86.388
X238.675Y-88.928
X238.675Y-91.468
X238.675Y-94.008
X238.675Y-96.548
X241.215Y-60.988
X241.215Y-63.528
X241.215Y-66.068
X241.215Y-68.608
X241.215Y-71.148
X241.215Y-73.688
X241.215Y-76.228
X241.215Y-78.768
X241.215Y-81.308
X241.215Y-83.848
X241.215Y-86.388
X241.215Y-88.928
X241.215Y-91.468
X241.215Y-94.008
X241.215Y-96.548
T6
X45.4Y-43.9
X45.4Y-112.9
X224.503Y-43.8
X224.503Y-112.9
M30
