M48
METRIC,TZ
T1C0.300
T2C0.500
T3C0.813
T4C0.900
T5C1.000
T6C3.200
%
G90
G05
T1
X61355Y-97746
X63500Y-44700
X63500Y-49400
X63500Y-54200
X63500Y-58900
X63500Y-63600
X63500Y-68300
X63500Y-73000
X63500Y-77800
X63500Y-82500
X63500Y-87100
X63500Y-91900
X63500Y-96600
X63500Y-106100
X63500Y-110900
X66650Y-87107
X67550Y-87107
X68450Y-87107
X69350Y-87107
X70200Y-87157
X70400Y-54400
X71100Y-87157
X71300Y-54400
X71850Y-100300
X71850Y-101300
X71850Y-103907
X71900Y-96600
X71900Y-99500
X71900Y-102100
X71900Y-103000
X72000Y-87157
X72100Y-54400
X72611Y-50095
X72700Y-94800
X72800Y-96600
X72900Y-87157
X73000Y-54400
X73500Y-94600
X73800Y-87157
X73900Y-54400
X74100Y-94000
X74700Y-54400
X74700Y-87157
X74700Y-93400
X75300Y-92800
X75352Y-64300
X75500Y-54400
X75600Y-87157
X75900Y-92200
X76200Y-64300
X76300Y-54400
X76500Y-87157
X76600Y-91700
X77100Y-54400
X77100Y-64300
X77400Y-91400
X77900Y-54400
X78000Y-64300
X78303Y-91012
X78700Y-54400
X78900Y-64300
X79096Y-90784
X79100Y-101100
X79500Y-54400
X79800Y-64300
X79924Y-90522
X80700Y-64300
X80710Y-90301
X81576Y-64276
X81800Y-77900
X81800Y-96500
X82400Y-64300
X82500Y-92200
X82700Y-55500
X82900Y-51000
X83200Y-97900
X83300Y-64300
X83600Y-73700
X83750Y-99300
X83900Y-51000
X84153Y-72447
X84200Y-64300
X84300Y-106300
X84719Y-71881
X84900Y-51000
X85100Y-64300
X85284Y-71316
X85700Y-51000
X86650Y-71300
X87200Y-90400
X87450Y-71300
X88250Y-71300
X89908Y-55557
X90100Y-62100
X90700Y-97900
X90700Y-99300
X90900Y-62700
X91700Y-63400
X92500Y-64000
X96300Y-103300
X135003Y-99806
X148700Y-53800
X156108Y-100052
X158800Y-55800
X163000Y-59713
X163000Y-64793
X163000Y-67333
X163000Y-72413
X163000Y-77493
X163000Y-90193
X163000Y-95273
X163139Y-58266
X164866Y-99723
X166000Y-63800
X166100Y-58700
X166100Y-61200
X171000Y-58700
X171000Y-61200
X171000Y-63800
X174800Y-58700
X174800Y-61000
X174800Y-63200
X174800Y-66100
X176900Y-61300
X176900Y-63800
X176915Y-95957
X177000Y-58700
X178860Y-61207
X179668Y-58714
X179755Y-61109
X180200Y-66100
X182661Y-90514
X182700Y-68400
X183000Y-59700
X183900Y-59700
X184843Y-61170
X191900Y-59700
X192100Y-86200
X192800Y-59700
X194200Y-63800
X197400Y-69400
X198300Y-59700
X198800Y-73500
X200596Y-59433
X206551Y-99723
X206634Y-100604
X208904Y-57880
X215719Y-88737
X216697Y-80428
X218300Y-72500
X218461Y-94003
X221000Y-91500
X221439Y-82184
X231100Y-63600
X235606Y-69816
X236312Y-79261
X239758Y-64611
T2
X43000Y-43900
X43000Y-112900
X43703Y-42203
X43703Y-45597
X43703Y-111203
X43703Y-114597
X45400Y-41500
X45400Y-46300
X45400Y-110500
X45400Y-115300
X47097Y-42203
X47097Y-45597
X47097Y-111203
X47097Y-114597
X47800Y-43900
X47800Y-112900
X222103Y-43800
X222103Y-112900
X222806Y-42103
X222806Y-45497
X222806Y-111203
X222806Y-114597
X224503Y-41400
X224503Y-46200
X224503Y-110500
X224503Y-115300
X226200Y-42103
X226200Y-45497
X226200Y-111203
X226200Y-114597
X226903Y-43800
X226903Y-112900
T3
X46180Y-51689
X46180Y-54229
X46180Y-56769
X46180Y-59309
X46180Y-73508
X46180Y-76048
X46180Y-78588
X46180Y-81128
X46180Y-95327
X46180Y-97867
X46180Y-100407
X46180Y-102947
X46185Y-61839
X46185Y-83658
X46185Y-105477
X53800Y-51689
X53800Y-54229
X53800Y-56769
X53800Y-59309
X53800Y-73508
X53800Y-76048
X53800Y-78588
X53800Y-81128
X53800Y-95327
X53800Y-97867
X53800Y-100407
X53800Y-102947
X53805Y-61839
X53805Y-83658
X53805Y-105477
T4
X123043Y-77351
X123043Y-79891
T5
X88280Y-48500
X90820Y-48500
X91703Y-66063
X91703Y-68603
X91703Y-71143
X91703Y-73683
X91703Y-76223
X91703Y-78763
X91703Y-81303
X91703Y-83843
X91703Y-86383
X91703Y-88923
X91703Y-91463
X91725Y-55000
X93360Y-48500
X94243Y-66063
X94243Y-68603
X94243Y-71143
X94243Y-73683
X94243Y-76223
X94243Y-78763
X94243Y-81303
X94243Y-83843
X94243Y-86383
X94243Y-88923
X94243Y-91463
X94265Y-55000
X95900Y-48500
X98440Y-48500
X106268Y-48400
X108658Y-66190
X108658Y-68730
X108658Y-71270
X108658Y-73810
X108658Y-76350
X108658Y-78890
X108658Y-81430
X108658Y-83970
X108658Y-86510
X108658Y-89050
X108658Y-91590
X108807Y-48400
X111198Y-66190
X111198Y-68730
X111198Y-71270
X111198Y-73810
X111198Y-76350
X111198Y-78890
X111198Y-81430
X111198Y-83970
X111198Y-86510
X111198Y-89050
X111198Y-91590
X111348Y-48400
X111578Y-96035
X111940Y-103900
X114118Y-96035
X114480Y-103900
X116658Y-96035
X117020Y-103900
X117965Y-48400
X119198Y-96035
X119560Y-103900
X120505Y-48400
X121738Y-96035
X122100Y-103900
X123045Y-48400
X124278Y-96035
X124640Y-103900
X126818Y-96035
X129359Y-96035
X129663Y-48400
X131160Y-103900
X131899Y-96035
X132202Y-48400
X133700Y-103900
X134439Y-96035
X134743Y-48400
X135963Y-66825
X135963Y-69365
X135963Y-71905
X135963Y-74445
X135963Y-76985
X135963Y-79525
X135963Y-82065
X135963Y-84605
X135963Y-87145
X135963Y-89685
X138503Y-66825
X138503Y-69365
X138503Y-71905
X138503Y-74445
X138503Y-76985
X138503Y-79525
X138503Y-82065
X138503Y-84605
X138503Y-87145
X138503Y-89685
X141360Y-48400
X143860Y-103660
X143860Y-106200
X143900Y-48400
X146440Y-48400
X153760Y-48400
X154325Y-103660
X154325Y-106200
X156150Y-59713
X156150Y-62253
X156150Y-64793
X156150Y-67333
X156150Y-69873
X156150Y-72413
X156150Y-74953
X156150Y-77493
X156150Y-80033
X156150Y-82573
X156150Y-85113
X156150Y-87653
X156150Y-90193
X156150Y-92733
X156150Y-95273
X156150Y-97813
X156300Y-48400
X158690Y-59713
X158690Y-62253
X158690Y-64793
X158690Y-67333
X158690Y-69873
X158690Y-72413
X158690Y-74953
X158690Y-77493
X158690Y-80033
X158690Y-82573
X158690Y-85113
X158690Y-87653
X158690Y-90193
X158690Y-92733
X158690Y-95273
X158690Y-97813
X158840Y-48400
X185943Y-59713
X185943Y-62253
X185943Y-64793
X185943Y-67333
X185943Y-69873
X185943Y-72413
X185943Y-74953
X185943Y-77493
X185943Y-80033
X185943Y-82573
X185943Y-85113
X185943Y-87653
X185943Y-90193
X185943Y-92733
X185943Y-95273
X185943Y-97813
X188483Y-59713
X188483Y-62253
X188483Y-64793
X188483Y-67333
X188483Y-69873
X188483Y-72413
X188483Y-74953
X188483Y-77493
X188483Y-80033
X188483Y-82573
X188483Y-85113
X188483Y-87653
X188483Y-90193
X188483Y-92733
X188483Y-95273
X188483Y-97813
X212228Y-59713
X212228Y-62253
X212228Y-64793
X212228Y-67333
X212228Y-69873
X212228Y-72413
X212228Y-74953
X212228Y-77493
X212228Y-80033
X212228Y-82573
X212228Y-85113
X212228Y-87653
X212228Y-90193
X212228Y-92733
X212228Y-95273
X212228Y-97813
X214767Y-59713
X214767Y-62253
X214767Y-64793
X214767Y-67333
X214767Y-69873
X214767Y-72413
X214767Y-74953
X214767Y-77493
X214767Y-80033
X214767Y-82573
X214767Y-85113
X214767Y-87653
X214767Y-90193
X214767Y-92733
X214767Y-95273
X214767Y-97813
X238675Y-60988
X238675Y-63528
X238675Y-66068
X238675Y-68608
X238675Y-71148
X238675Y-73688
X238675Y-76228
X238675Y-78768
X238675Y-81308
X238675Y-83848
X238675Y-86388
X238675Y-88928
X238675Y-91468
X238675Y-94008
X238675Y-96548
X241215Y-60988
X241215Y-63528
X241215Y-66068
X241215Y-68608
X241215Y-71148
X241215Y-73688
X241215Y-76228
X241215Y-78768
X241215Y-81308
X241215Y-83848
X241215Y-86388
X241215Y-88928
X241215Y-91468
X241215Y-94008
X241215Y-96548
T6
X45400Y-43900
X45400Y-112900
X224503Y-43800
X224503Y-112900
M30
